<svg width="708" height="651" viewBox="0 0 708 651" fill="none" xmlns="http://www.w3.org/2000/svg">
<path d="M0 28C0 12.5361 12.536 0 28 0H674.8C690.264 0 702.8 12.536 702.8 28V60.2H0V28Z" fill="#ED1B24"/>
<path d="M0 28C0 12.536 12.536 0 28 0H32.2C47.6639 0 60.2 12.536 60.2 28V650.3H0V28Z" fill="#ED1B24"/>
<path d="M129.5 28C129.5 12.536 142.036 0 157.5 0H161.7C177.164 0 189.7 12.536 189.7 28V650.3H129.5V28Z" fill="#ED1B24"/>
<path d="M259 28C259 12.536 271.536 0 287 0H291.2C306.664 0 319.2 12.536 319.2 28V650.3H259V28Z" fill="#ED1B24"/>
<path d="M388.5 28C388.5 12.536 401.036 0 416.5 0H420.7C436.164 0 448.7 12.536 448.7 28V650.3H388.5V28Z" fill="#ED1B24"/>
<path d="M518 28C518 12.536 530.536 0 546 0H550.2C565.664 0 578.2 12.536 578.2 28V650.3H518V28Z" fill="#ED1B24"/>
<path d="M647.5 28C647.5 12.536 660.036 0 675.5 0H679.7C695.164 0 707.7 12.536 707.7 28V650.3H647.5V28Z" fill="#ED1B24"/>
</svg>
