<svg width="608" height="608" viewBox="0 0 608 608" fill="none" xmlns="http://www.w3.org/2000/svg">
<path d="M304 608C471.895 608 608 471.895 608 304C608 136.105 471.895 0 304 0C136.105 0 0 136.105 0 304C0 471.895 136.105 608 304 608Z" fill="#FFCC4D"/>
<path d="M304 354.667C242.812 354.667 202.211 347.54 152 337.778C140.533 335.566 118.222 337.778 118.222 371.556C118.222 439.112 195.827 523.556 304 523.556C412.157 523.556 489.778 439.112 489.778 371.556C489.778 337.778 467.468 335.549 456 337.778C405.789 347.54 365.189 354.667 304 354.667Z" fill="#214282"/>
<path d="M152 371.555C152 371.555 202.667 388.444 304 388.444C405.333 388.444 456 371.555 456 371.555C456 371.555 422.222 439.111 304 439.111C185.778 439.111 152 371.555 152 371.555Z" fill="white"/>
<path d="M202.667 287.111C225.985 287.111 244.889 260.646 244.889 228C244.889 195.354 225.985 168.889 202.667 168.889C179.348 168.889 160.444 195.354 160.444 228C160.444 260.646 179.348 287.111 202.667 287.111Z" fill="#214282"/>
<path d="M405.333 287.111C428.652 287.111 447.556 260.646 447.556 228C447.556 195.354 428.652 168.889 405.333 168.889C382.015 168.889 363.111 195.354 363.111 228C363.111 260.646 382.015 287.111 405.333 287.111Z" fill="#214282"/>
</svg>
