<svg width="215" height="211" viewBox="0 0 215 211" fill="none" xmlns="http://www.w3.org/2000/svg">
<path fill-rule="evenodd" clip-rule="evenodd" d="M101.094 0.924137C76.5198 4.92587 55.316 11.1365 36.3646 19.8826L32.3645 21.7287L32.1827 27.9701L32.0009 34.2118L24.0007 38.6633L16.0005 43.1148L15.8186 49.3488L15.6368 55.5824L7.81843 59.9336L4.57764e-05 64.2847L0.0916841 66.3382C0.141867 67.4676 0.680064 71.1129 1.28772 74.4386C11.7462 131.689 46.586 178.266 101.167 207.968C104.207 209.623 106.893 210.976 107.135 210.976C107.377 210.976 109.592 209.891 112.056 208.563C140.501 193.243 163.065 173.949 180.939 149.663C198.215 126.191 209.181 99.43 214.207 68.4864C214.81 64.7749 214.808 64.6135 214.168 64.137C213.803 63.8646 210.098 61.7963 205.936 59.5408L198.369 55.4395L198.368 49.2681L198.368 43.0963L190.368 38.6785L182.368 34.2603V28.2151V22.17L181.187 21.4344C179.376 20.3083 167.931 15.4314 161.809 13.1774C151.251 9.29075 138.981 5.86578 126.549 3.33406C119.965 1.99361 107.728 -0.0798114 106.887 0.00237026C106.701 0.0208797 104.094 0.435489 101.094 0.924137Z" fill="#F7E104"/>
<path fill-rule="evenodd" clip-rule="evenodd" d="M102.215 19.6023C82.0611 22.8804 64.6713 27.968 49.1287 35.1325L45.8481 36.6448L45.699 41.7576L45.5499 46.8706L38.9887 50.5172L32.4275 54.1637L32.2784 59.2704L32.1292 64.3768L25.7172 67.9412L19.3051 71.5056L19.3802 73.1877C19.4214 74.1129 19.8628 77.099 20.3611 79.8233C28.9384 126.721 57.5115 164.876 102.275 189.207C104.768 190.562 106.971 191.671 107.17 191.671C107.368 191.671 109.185 190.782 111.206 189.694C134.534 177.145 153.04 161.34 167.698 141.445C181.866 122.217 190.861 100.296 194.982 74.9474C195.477 71.9071 195.475 71.7748 194.95 71.3846C194.651 71.1614 191.613 69.4671 188.199 67.6194L181.993 64.2598L181.993 59.2043L181.992 54.1486L175.431 50.5296L168.871 46.9104V41.9583V37.0063L167.901 36.4037C166.417 35.4813 157.03 31.4863 152.009 29.6398C143.35 26.456 133.288 23.6504 123.091 21.5765C117.691 20.4784 107.656 18.7799 106.966 18.8472C106.813 18.8624 104.675 19.202 102.215 19.6023Z" fill="#214282"/>
<g clip-path="url(#clip0_163_421)">
<path d="M113.448 172.366C112.659 172.366 112.015 172.112 111.515 171.602C111.012 171.093 110.762 170.439 110.762 169.642L108.476 38.577C108.476 37.7768 108.726 37.1233 109.229 36.6166C109.729 36.1071 110.373 35.8523 111.162 35.8523C111.162 35.8523 167.13 37.378 172.361 94.2128C174.508 148.375 113.448 172.366 113.448 172.366Z" fill="#F7E104"/>
</g>
<path d="M158.118 99.5129C158.118 125.533 142.066 146.626 122.265 146.626V52.3995C142.066 52.3995 158.118 73.4929 158.118 99.5129Z" fill="#214282"/>
<g clip-path="url(#clip1_163_421)">
<path d="M51.3979 126.39C37.3074 100.091 41.357 76.7843 41.357 76.7843C41.357 75.9294 41.5869 75.2289 42.0495 74.6856C42.512 74.1423 56.4003 66.9167 56.4003 66.9167C57.126 66.9167 57.7216 67.1897 58.1842 67.733C58.6467 68.2763 58.8766 68.9768 58.8766 69.8318L59.6107 95.8274H84.0717L81.9444 43.8141C81.9444 42.9592 82.1771 42.2587 82.6369 41.7154C83.0995 41.1721 101.73 37.4159 101.73 37.4159C102.456 37.4159 103.051 37.6889 103.511 38.2322C103.973 38.7755 104.203 39.476 104.203 40.3309L104.27 169.426C104.27 170.281 104.037 170.982 103.577 171.525C103.115 172.068 102.541 172.364 101.794 172.342L92.6058 166.823C91.2679 165.987 84.6229 161.136 84.6229 161.136C84.6229 161.136 83.7919 160.634 82.6258 159.631C82.1632 159.087 81.5899 158.241 81.5899 157.386L84.0662 114.479H59.6051L70.8565 145.753C71.1778 146.561 70.6266 147.308 70.164 147.852C69.7014 148.395 69.02 149.517 68.3802 148.668C68.3802 148.668 57.2895 137.391 51.3923 126.387L51.3979 126.39Z" fill="#F7E104"/>
</g>
<defs>
<clipPath id="clip0_163_421">
<rect width="63.8905" height="136.514" fill="white" transform="translate(108.476 35.8523)"/>
</clipPath>
<clipPath id="clip1_163_421">
<rect width="63.4308" height="135.135" fill="white" transform="translate(40.9083 37.2311)"/>
</clipPath>
</defs>
</svg>
