<svg width="426" height="426" viewBox="0 0 426 426" fill="none" xmlns="http://www.w3.org/2000/svg">
<path d="M425.6 212.8C425.6 330.325 330.325 425.6 212.8 425.6C95.2871 425.6 0 330.325 0 212.8C0 95.2871 95.2871 0 212.8 0C330.325 0 425.6 95.2871 425.6 212.8Z" fill="#FFCC4D"/>
<path d="M204.666 208.211C202.586 206.521 199.618 206.473 197.455 208.046C197.313 208.152 182.559 218.709 153.689 218.709C124.831 218.709 110.065 208.152 109.947 208.069C107.783 206.45 104.804 206.497 102.723 208.176C100.619 209.854 99.9096 212.739 100.997 215.198C101.707 216.794 118.731 254.176 153.689 254.176C188.659 254.176 205.671 216.794 206.381 215.198C207.468 212.751 206.759 209.89 204.666 208.211ZM322.889 208.211C320.808 206.521 317.852 206.461 315.677 208.046C315.535 208.152 300.769 218.709 271.911 218.709C243.065 218.709 228.287 208.152 228.169 208.069C226.005 206.45 223.038 206.497 220.945 208.176C218.841 209.854 218.132 212.739 219.219 215.198C219.929 216.794 236.953 254.176 271.911 254.176C306.881 254.176 323.893 216.794 324.603 215.198C325.69 212.751 324.981 209.89 322.889 208.211ZM260.089 331.02H165.511C158.985 331.02 153.689 325.736 153.689 319.198C153.689 312.661 158.985 307.376 165.511 307.376H260.089C266.627 307.376 271.911 312.661 271.911 319.198C271.911 325.736 266.627 331.02 260.089 331.02ZM70.9333 165.509C64.4074 165.509 59.1111 160.213 59.1111 153.687C59.1111 147.173 64.372 141.889 70.886 141.865C72.7303 141.841 113.08 140.848 144.243 99.3049C148.156 94.1031 155.557 93.0154 160.794 96.9404C166.019 100.854 167.072 108.266 163.158 113.492C124.583 164.918 73.1086 165.509 70.9333 165.509ZM354.667 165.509C352.491 165.509 301.029 164.918 262.453 113.492C258.528 108.266 259.592 100.854 264.818 96.9404C270.031 93.0036 277.432 94.0794 281.357 99.3049C312.58 140.931 353.012 141.853 354.726 141.865C361.228 141.936 366.477 147.256 366.442 153.746C366.418 160.26 361.169 165.509 354.667 165.509Z" fill="#214282"/>
</svg>
